<?xml version="1.0" encoding="UTF-8"?>
<svg width="64px" height="64px" viewBox="0 0 64 64" version="1.1" xmlns="http://www.w3.org/2000/svg" xmlns:xlink="http://www.w3.org/1999/xlink">
    <title>logo</title>
    <g id="Page-1" stroke="none" stroke-width="1" fill="none" fill-rule="evenodd">
        <g id="Sigmy.email" transform="translate(-51.000000, -149.000000)" fill="#fff">
            <g id="Group-2-Copy" transform="translate(51.000000, 149.000000)">
                <path d="M42.3431458,14 L21.6568542,14 L32,3.65685425 L42.3431458,14 Z M50,21.6568542 L60.3431458,32 L50,42.3431458 L50,21.6568542 Z M42.3431458,50 L32,60.3431458 L21.6568542,50 L42.3431458,50 Z M14,42.3431458 L3.65685425,32 L14,21.6568542 L14,42.3431458 Z M64,24.3431458 L39.6568542,-3.55271368e-15 L60,0 C62.209139,4.05812251e-16 64,1.790861 64,4 L64,24.3431458 Z M64,39.6568542 L64,60 C64,62.209139 62.209139,64 60,64 L39.6568542,64 L64,39.6568542 Z M24.3431458,64 L4,64 C1.790861,64 0,62.209139 0,60 L0,39.6568542 L24.3431458,64 Z M0,24.3431458 L0,4 C0,1.790861 1.790861,-4.05812251e-16 4,0 L24.3431458,0 L0,24.3431458 Z M42,22 L42,42 L22,42 L22,22 L42,22 Z" id="logo"></path>
            </g>
        </g>
    </g>
</svg>