<?xml version="1.0" encoding="UTF-8"?>
<svg width="160px" height="160px" viewBox="0 0 160 160" version="1.1" xmlns="http://www.w3.org/2000/svg" xmlns:xlink="http://www.w3.org/1999/xlink">
    <!-- Generator: Sketch 54.1 (76490) - https://sketchapp.com -->
    <title>logo</title>
    <desc>Created with Sketch.</desc>
    <g id="Page-1" stroke="none" stroke-width="1" fill="none" fill-rule="evenodd">
        <g id="Logo" fill="#fff">
            <path d="M80,160 C35.81722,160 0,124.18278 0,80 C0,35.81722 35.81722,0 80,0 C124.18278,0 160,35.81722 160,80 C160,124.18278 124.18278,160 80,160 Z M79.9843004,18 C45.8066009,18 18,45.8066009 18,79.9843004 C18,114.162 45.8066009,141.968601 79.9843004,141.968601 C90.883794,141.968601 101.601545,139.100901 110.984034,133.672043 L103.228446,120.256627 C96.1992961,124.323614 88.1597854,126.472592 79.9843004,126.472592 C54.3492961,126.472592 33.4960086,105.619305 33.4960086,79.9843004 C33.4960086,54.3492961 54.3492961,33.4960086 79.9843004,33.4960086 C105.619305,33.4960086 126.472592,54.3492961 126.472592,79.9843004 L126.472592,86.7335193 C126.472592,91.8031502 123.21533,95.480309 118.724455,95.480309 C114.453107,95.480309 110.976318,92.0035193 110.976318,87.7321717 L110.976318,56.7401545 L100.265751,56.7401545 C94.815073,51.9783948 87.7731502,48.9920172 79.9843004,48.9920172 C62.8954506,48.9920172 48.9920172,62.8954506 48.9920172,79.9843004 C48.9920172,97.0731502 62.8954506,110.976584 79.9843004,110.976584 C88.122,110.976584 95.4795107,107.758438 101.015339,102.610043 C105.282429,107.681004 111.593657,110.976584 118.724455,110.976584 C131.75776,110.976584 141.968601,100.326953 141.968601,86.7335193 L141.968601,79.9843004 C141.968601,45.8066009 114.162,18 79.9843004,18 Z M79.9843004,95.480309 C71.4378798,95.480309 64.4882918,88.5304549 64.4882918,79.9843004 C64.4882918,71.4378798 71.4381459,64.4882918 79.9843004,64.4882918 C88.530721,64.4882918 95.480309,71.4381459 95.480309,79.9843004 C95.480309,88.530721 88.530721,95.480309 79.9843004,95.480309 Z" id="logo"></path>
        </g>
    </g>
</svg>