<?xml version="1.0" encoding="UTF-8"?>
<svg width="36px" height="24px" viewBox="0 0 36 24" version="1.1" xmlns="http://www.w3.org/2000/svg" xmlns:xlink="http://www.w3.org/1999/xlink">
    <title>Logo sigmy.email</title>
    <g id="Page-1" stroke="none" stroke-width="1" fill="none" fill-rule="evenodd">
        <g id="Sigmy.email" transform="translate(-30.000000, -27.000000)" fill="#fff" fill-rule="nonzero">
            <path d="M39.1208077,37.5218012 C39.041339,38.0027395 39,38.4965421 39,39 C39,43.9705627 43.0294373,48 48,48 C52.9705627,48 57,43.9705627 57,39 C57,38.4965358 56.95866,38.0027271 56.8791893,37.5217831 C59.4038271,35.4924044 62.2941368,33.1842385 64.8378088,31.1577448 C65.046,30.9905746 65.3403529,30.9523892 65.5905662,31.0618458 C65.8400515,31.1700587 66,31.4052039 66,31.6636709 L66,48.3464843 C66,49.8099697 64.7337132,51 63.1765147,51 L32.8235515,51 C31.2662868,51 30,49.8099697 30,48.3464843 L30,31.6636709 C30,31.4052039 30.1599485,31.1706806 30.4094338,31.0617836 C30.6575956,30.953633 30.9526103,30.9905124 31.1621912,31.1576826 C33.3477647,32.8985448 36.3908341,35.3272033 39.1208077,37.5218012 L39.1208077,37.5218012 Z M55.6652964,34.2813254 C54.0804441,31.7122706 51.2401832,30 48,30 C44.7598841,30 41.9196739,31.7121995 40.3348024,34.2811652 C37.8397994,32.322974 35.1900251,30.2552359 33.2272896,28.72605 C32.9638272,28.5211799 32.9236605,28.1610783 33.1369596,27.9106692 C33.6299805,27.3318475 34.365206,27 35.1530639,27 L60.8468759,27 C61.634794,27 62.3699593,27.3318475 62.8630404,27.9106138 C63.0763395,28.1610783 63.0361728,28.5211799 62.7727104,28.72605 C60.810034,30.255168 58.1603929,32.3229097 55.6652926,34.2813283 L55.6652964,34.2813254 Z M48,33 C51.3083571,33 54,35.6916429 54,39 L54,39.6533156 C54,40.9691424 53.0116038,42.0000129 51.7499968,42.0000129 C51.0597447,42.0000129 50.4488261,41.6810051 50.0357773,41.1901426 C49.4999163,41.6885005 48.7877188,42.0000129 48,42.0000129 C46.3458215,42.0000129 44.9999871,40.6541785 44.9999871,39 C44.9999871,37.3458215 46.3458215,35.9999871 48,35.9999871 C48.7539506,35.9999871 49.4355996,36.2890646 49.9632182,36.7499968 L50.9999871,36.7499968 L50.9999871,39.7499839 C50.9999871,40.1634448 51.3365359,40.4999936 51.7499968,40.4999936 C52.1847077,40.4999936 52.5000064,40.1440494 52.5000064,39.6533156 L52.5,39 C52.5000064,36.5185648 50.4814352,34.4999936 48,34.5 C45.5185648,34.4999936 43.4999936,36.5185648 43.5,39 C43.4999936,41.4814352 45.5185648,43.5000064 48,43.5 C48.7913764,43.5000064 49.5695906,43.2919881 50.2500032,42.898309 L51.0007341,44.1969039 C50.0925213,44.7224104 49.0550569,45 48,45 C44.6916429,45 42,42.3083571 42,39 C42,35.6916429 44.6916429,33 48,33 Z M48,40.4999936 C48.8272824,40.4999936 49.4999936,39.8272824 49.4999936,39 C49.4999936,38.1727433 48.8272824,37.5000064 48.0000064,37.5000064 C47.1727433,37.5000064 46.5000064,38.1727176 46.5000064,39.0000064 C46.5000064,39.8272567 47.1727176,40.4999936 48,40.4999936 Z" id="Shape"></path>
        </g>
    </g>
</svg>