<?xml version="1.0" encoding="UTF-8"?>
<svg width="160px" height="112px" viewBox="0 0 160 112" version="1.1" xmlns="http://www.w3.org/2000/svg" xmlns:xlink="http://www.w3.org/1999/xlink">
    <title>template</title>
    <desc>Created with Sketch.</desc>
    <g id="Page-1" stroke="none" stroke-width="1" fill="none" fill-rule="evenodd">
        <g id="Logo" transform="translate(0.000000, -24.000000)" fill="#FFFFFF">
            <g id="template" transform="translate(0.000000, 24.000000)">
                <path fill="#fff" d="M48,0 L158,0 C159.104569,-2.02906125e-16 160,0.8954305 160,2 L160,14 C160,15.1045695 159.104569,16 158,16 L48,16 L48,0 Z" id="Rectangle"></path>
                <path fill="#fff" d="M48,32 L158,32 C159.104569,32 160,32.8954305 160,34 L160,46 C160,47.1045695 159.104569,48 158,48 L48,48 L48,32 Z" id="Rectangle-Copy"></path>
                <rect fill="#fff" id="Rectangle-Copy-2" x="48" y="64" width="112" height="16" rx="2"></rect>
                <rect fill="#fff" id="Rectangle-Copy-3" x="48" y="96" width="112" height="16" rx="2"></rect>
                <path fill="#fff" d="M2,0 L48,0 L48,48 L2,48 C0.8954305,48 1.3527075e-16,47.1045695 0,46 L0,2 C-1.3527075e-16,0.8954305 0.8954305,2.02906125e-16 2,0 Z" id="Rectangle"></path>
            </g>
        </g>
    </g>
</svg>